<?xml version="1.0" encoding="UTF-8" standalone="no"?>
<!-- Created with Inkscape (http://www.inkscape.org/) -->

<svg
   xmlns:dc="http://purl.org/dc/elements/1.1/"
   xmlns:cc="http://creativecommons.org/ns#"
   xmlns:rdf="http://www.w3.org/1999/02/22-rdf-syntax-ns#"
   xmlns:svg="http://www.w3.org/2000/svg"
   xmlns="http://www.w3.org/2000/svg"
   xmlns:sodipodi="http://sodipodi.sourceforge.net/DTD/sodipodi-0.dtd"
   xmlns:inkscape="http://www.inkscape.org/namespaces/inkscape"
   id="svg4729"
   height="155"
   width="661"
   version="1.1"
   viewBox="0 0 661 155"
   inkscape:version="0.91 r"
   sodipodi:docname="logo_svg.svg">
  <sodipodi:namedview
     pagecolor="#ffffff"
     bordercolor="#666666"
     borderopacity="1"
     objecttolerance="10"
     gridtolerance="10"
     guidetolerance="10"
     inkscape:pageopacity="0"
     inkscape:pageshadow="2"
     inkscape:window-width="1920"
     inkscape:window-height="1028"
     id="namedview5300"
     showgrid="false"
     units="px"
     inkscape:zoom="1.2685914"
     inkscape:cx="237.0465"
     inkscape:cy="86.906282"
     inkscape:window-x="0"
     inkscape:window-y="0"
     inkscape:window-maximized="1"
     inkscape:current-layer="svg4729" />
  <defs
     id="defs4731">
    <clipPath
       id="clipPath3369"
       clipPathUnits="userSpaceOnUse">
      <path
         id="path3371"
         d="m 0,841.89 595.28,0 L 595.28,0 0,0 0,841.89 Z"
         inkscape:connector-curvature="0" />
    </clipPath>
  </defs>
  <metadata
     id="metadata4734">
    <rdf:RDF>
      <cc:Work
         rdf:about="">
        <dc:format>image/svg+xml</dc:format>
        <dc:type
           rdf:resource="http://purl.org/dc/dcmitype/StillImage" />
        <dc:title></dc:title>
      </cc:Work>
    </rdf:RDF>
  </metadata>
  <g
     id="layer1"
     transform="translate(-46.322019,-61.286995)"
     style="fill:#ffffff">
    <g
       id="g4615"
       transform="matrix(1.25,0,0,-1.25,7.9602,1050.4)"
       style="fill:#ffffff">
      <path
         id="path3563"
         d="m 376.34,724.68 c 0,0 5.18,27.801 6.093,38.213 0.028,0.422 0.07,0.832 0.095,1.255 0.036,-0.337 0.084,-0.684 0.12,-1.021 1.168,-9.288 6.826,-38.447 6.826,-38.447 l -13.134,0 z m 16.558,64.3 -19.527,0 -21.575,-92.604 0,-1.251 18.273,0 3.302,15.744 18.771,0 3.507,-15.744 19.212,0 0,1.893 -21.963,91.962 z"
         inkscape:connector-curvature="0"
         style="fill:#ffffff" />
      <g
         id="g3565"
         transform="translate(510.81,717.81)"
         style="fill:#ffffff">
        <path
           id="path3567"
           d="m 0,0 c -2.385,-4.264 -5.389,-6.396 -9.007,-6.396 -3.208,0 -5.961,1.72 -8.252,5.158 -3.302,4.904 -4.951,13.522 -4.951,25.852 0,11.414 1.398,19.619 4.193,24.616 2.385,4.264 5.386,6.395 9.01,6.395 3.208,-0.046 5.956,-1.765 8.25,-5.158 C 2.543,45.609 4.194,36.854 4.194,24.201 4.194,13.063 2.794,4.994 0,0 m 20.593,49.437 c -2.27,6.737 -5.858,12.124 -10.762,16.157 -5.776,4.72 -12.08,7.082 -18.907,7.082 -5.043,-0.092 -9.789,-1.398 -14.236,-3.918 -4.168,-2.384 -7.56,-5.455 -10.174,-9.215 -2.935,-4.217 -5.088,-9.178 -6.463,-14.885 -1.059,-4.387 -1.702,-9.421 -1.948,-15.093 l 0.083,0 c 0.047,-3.072 0.07,-5.524 0.07,-7.356 0,-1.574 -0.029,-3.076 -0.073,-4.54 0.963,-16.332 5.614,-27.935 13.97,-34.792 5.775,-4.72 12.056,-7.08 18.84,-7.08 4.903,0 9.668,1.306 14.299,3.919 4.172,2.383 7.564,5.454 10.177,9.212 5.685,8.115 8.527,19.642 8.527,34.587 0,10.543 -1.136,19.183 -3.403,25.922"
           inkscape:connector-curvature="0"
           style="fill:#ffffff" />
      </g>
      <g
         id="g4527"
         style="fill:#ffffff">
        <g
           id="g3553"
           transform="translate(274.95,751.91)"
           style="fill:#ffffff">
          <path
             id="path3555"
             d="m 0,0 c -2.109,-2.293 -5.042,-3.438 -8.802,-3.438 -0.779,0 -1.81,0.069 -3.093,0.206 l 0,25.648 c 4.858,0 7.976,-0.322 9.352,-0.963 C 1.26,19.666 3.163,15.677 3.163,9.489 3.163,5.455 2.109,2.293 0,0 m 7.769,-14.095 c 4.63,2.841 8.022,6.176 10.177,10.005 2.154,3.825 3.232,8.445 3.232,13.855 0,4.216 -0.782,8.225 -2.337,12.031 -1.973,4.676 -4.883,8.296 -8.734,10.864 -4.492,2.934 -11.275,4.401 -20.352,4.401 l -20.215,0 0,-91.962 0.452,-1.893 18.113,0 0,43.251 16.501,-43.251 18.62,0 0,2.371 -15.457,40.328 z"
             inkscape:connector-curvature="0"
             style="fill:#ffffff" />
        </g>
        <g
           id="g3557"
           transform="translate(328.63,752)"
           style="fill:#ffffff">
          <path
             id="path3559"
             d="m 0,0 c -2.108,-2.292 -5.042,-3.437 -8.801,-3.437 -0.779,0 -1.81,0.068 -3.093,0.206 l 0,25.646 c 4.858,0 7.975,-0.321 9.35,-0.962 C 1.26,19.665 3.164,15.677 3.164,9.489 3.164,5.455 2.108,2.291 0,0 m 7.771,-14.096 c 4.628,2.842 8.021,6.177 10.176,10.005 2.155,3.826 3.23,8.445 3.23,13.856 0,4.216 -0.78,8.226 -2.337,12.032 -1.971,4.675 -4.881,8.296 -8.732,10.864 -4.494,2.934 -11.277,4.4 -20.352,4.4 l -20.215,0 0,-91.964 0.452,-1.891 18.113,0 0,43.25 16.501,-43.25 18.621,0 0,2.37 -15.457,40.328 z"
             inkscape:connector-curvature="0"
             style="fill:#ffffff" />
        </g>
        <g
           id="g4444"
           style="fill:#ffffff">
          <g
             id="g3367"
             clip-path="url(#clipPath3369)"
             style="fill:#ffffff">
            <g
               id="g3373"
               transform="translate(83.47,776.4)"
               style="fill:#ffffff">
              <path
                 id="path3375"
                 d="m 0,0 12.585,12.582 -31.964,0 c -5.372,0 -9.725,-4.353 -9.725,-9.725 l 0,-67.322 L 17.68,-17.682 0,0 Z"
                 inkscape:connector-curvature="0"
                 style="fill:#ffffff" />
            </g>
            <g
               id="g3377"
               transform="translate(148.63,739.75)"
               style="fill:#ffffff">
              <path
                 id="path3379"
                 d="m 0,0 -49.226,49.225 -2.795,0 L 0,-2.792 0,0 Z"
                 inkscape:connector-curvature="0"
                 style="fill:#ffffff" />
            </g>
            <g
               id="g3381"
               transform="translate(71.826,694.72)"
               style="fill:#ffffff">
              <path
                 id="path3383"
                 d="m 0,0 67.077,0 c 5.371,0 9.726,4.354 9.726,9.728 l 0,31.717 L 64.342,28.983 46.66,46.664 0,0 Z"
                 inkscape:connector-curvature="0"
                 style="fill:#ffffff" />
            </g>
            <g
               id="g3385"
               transform="translate(211.98,763.52)"
               style="fill:#ffffff">
              <path
                 id="path3387"
                 d="M 0,0 C 0.039,0.446 0.073,0.874 0.097,1.253 0.071,0.831 0.027,0.42 0,0"
                 inkscape:connector-curvature="0"
                 style="fill:#ffffff" />
            </g>
            <g
               id="g3389"
               transform="translate(212.08,764.77)"
               style="fill:#ffffff">
              <path
                 id="path3391"
                 d="M 0,0 C 0.031,-0.304 0.072,-0.652 0.118,-1.021 0.082,-0.683 0.034,-0.337 0,0"
                 inkscape:connector-curvature="0"
                 style="fill:#ffffff" />
            </g>
            <g
               id="g3393"
               transform="translate(244.49,695.12)"
               style="fill:#ffffff">
              <path
                 id="path3395"
                 d="M 0,0 0.452,0 0,1.893 0,0 Z"
                 inkscape:connector-curvature="0"
                 style="fill:#ffffff" />
            </g>
            <g
               id="g3397"
               transform="translate(298.18,695.12)"
               style="fill:#ffffff">
              <path
                 id="path3399"
                 d="M 0,0 0.909,0 0,2.371 0,0 Z"
                 inkscape:connector-curvature="0"
                 style="fill:#ffffff" />
            </g>
            <g
               id="g3401"
               transform="translate(351.64,698.07)"
               style="fill:#ffffff">
              <path
                 id="path3403"
                 d="m 0,0 -0.687,-2.948 1.817,0 L 0,0 Z"
                 inkscape:connector-curvature="0"
                 style="fill:#ffffff" />
            </g>
            <g
               id="g3405"
               transform="translate(468.91,747.38)"
               style="fill:#ffffff">
              <path
                 id="path3407"
                 d="m 0,0 -30.17,0 0,-16.64 11.827,0 c -0.367,-13.569 -4.125,-20.352 -11.276,-20.352 -9.214,0 -13.821,10.543 -13.821,31.628 0,8.985 1.077,16.571 3.233,22.76 2.15,6.188 5.591,9.283 10.312,9.283 3.393,0 5.845,-1.582 7.357,-4.745 0.78,-1.697 1.49,-4.423 2.133,-8.181 l 18.083,7.011 c -2.155,7.196 -5.615,12.721 -10.382,16.571 -4.769,3.851 -10.522,5.776 -17.26,5.776 -10.818,0 -19.114,-4.468 -24.89,-13.408 -5.684,-8.801 -8.526,-20.581 -8.526,-35.341 0,-3.661 0.199,-7.141 0.591,-10.443 l 3.576,-14.979 c 1.322,-3.434 2.956,-6.583 4.909,-9.439 6.051,-8.847 14.186,-13.269 24.409,-13.269 9.258,0 16.547,3.828 21.867,11.483 2.978,4.262 5.086,9.053 6.324,14.369 1.006,4.319 1.596,9.673 1.784,16.02 -0.123,2.124 -0.194,4.319 -0.194,6.602 0,1.825 0.041,3.586 0.114,5.294"
                 inkscape:connector-curvature="0"
                 style="fill:#ffffff" />
            </g>
            <g
               id="g3409"
               transform="translate(409.7,716.32)"
               style="fill:#ffffff">
              <path
                 id="path3411"
                 d="M 0,0 -3.576,14.979 C -2.925,9.488 -1.731,4.497 0,0"
                 inkscape:connector-curvature="0"
                 style="fill:#ffffff" />
            </g>
            <g
               id="g3413"
               transform="translate(468.99,747.38)"
               style="fill:#ffffff">
              <path
                 id="path3415"
                 d="m 0,0 -0.083,0 c -0.073,-1.708 -0.114,-3.469 -0.114,-5.294 0,-2.283 0.071,-4.478 0.194,-6.602 0.044,1.464 0.073,2.966 0.073,4.54 C 0.07,-5.524 0.048,-3.072 0,0"
                 inkscape:connector-curvature="0"
                 style="fill:#ffffff" />
            </g>
            <g
               id="g3417"
               transform="translate(68.168,687.75)"
               style="fill:#ffffff">
              <path
                 id="path3419"
                 d="m 0,0 0,-11.219 c 0,-3.373 -2.125,-5.441 -5.384,-5.441 -3.259,0 -5.356,2.068 -5.356,5.384 l 0,11.276 c 0,1.218 -0.51,1.727 -1.729,1.727 l -2.095,0 0,-1.753 1.218,0 c 0.397,0 0.624,-0.201 0.624,-0.625 l 0,-10.712 c 0,-4.305 2.974,-7.166 7.366,-7.166 4.391,0 7.337,2.861 7.337,7.166 l 0,10.712 c 0,0.424 0.227,0.625 0.624,0.625 l 1.218,0 0,1.753 -2.097,0 C 0.507,1.727 0,1.218 0,0"
                 inkscape:connector-curvature="0"
                 style="fill:#ffffff" />
            </g>
            <g
               id="g3421"
               transform="translate(89.353,687.75)"
               style="fill:#ffffff">
              <path
                 id="path3423"
                 d="m 0,0 0,-12.467 c 0,-1.049 0.142,-2.605 0.142,-2.605 l -0.056,0 c 0,0 -0.936,1.614 -1.615,2.605 L -11.7,1.727 l -1.814,0 0,-17.536 c 0,-0.426 -0.227,-0.625 -0.623,-0.625 l -1.218,0 0,-1.754 2.096,0 c 1.217,0 1.729,0.508 1.729,1.727 l 0,12.466 c 0,1.049 -0.17,2.578 -0.17,2.578 l 0.056,0 c 0,0 0.936,-1.615 1.643,-2.578 l 10.171,-14.193 1.814,0 0,17.537 c 0,0.424 0.226,0.625 0.623,0.625 l 1.217,0 0,1.753 -2.095,0 C 0.51,1.727 0,1.218 0,0"
                 inkscape:connector-curvature="0"
                 style="fill:#ffffff" />
            </g>
            <g
               id="g3425"
               transform="translate(95.642,687.72)"
               style="fill:#ffffff">
              <path
                 id="path3427"
                 d="m 0,0 1.87,0 0,-16.407 -1.87,0 0,-1.755 5.693,0 0,1.755 -1.897,0 0,16.407 1.897,0 0,1.753 L 0,1.753 0,0 Z"
                 inkscape:connector-curvature="0"
                 style="fill:#ffffff" />
            </g>
            <g
               id="g3429"
               transform="translate(119.18,687.75)"
               style="fill:#ffffff">
              <path
                 id="path3431"
                 d="m 0,0 0,-12.467 c 0,-1.049 0.142,-2.605 0.142,-2.605 l -0.057,0 c 0,0 -0.935,1.614 -1.615,2.605 l -10.172,14.194 -1.813,0 0,-17.536 c 0,-0.426 -0.227,-0.625 -0.624,-0.625 l -1.217,0 0,-1.754 2.095,0 c 1.219,0 1.73,0.508 1.73,1.727 l 0,12.466 c 0,1.049 -0.171,2.578 -0.171,2.578 l 0.057,0 c 0,0 0.935,-1.615 1.643,-2.578 l 10.17,-14.193 1.815,0 0,17.537 c 0,0.424 0.226,0.625 0.624,0.625 l 1.217,0 0,1.753 -2.095,0 C 0.51,1.727 0,1.218 0,0"
                 inkscape:connector-curvature="0"
                 style="fill:#ffffff" />
            </g>
            <g
               id="g3433"
               transform="translate(133.15,671.32)"
               style="fill:#ffffff">
              <path
                 id="path3435"
                 d="m 0,0 -3.343,0 c -0.396,0 -0.622,0.199 -0.622,0.625 l 0,15.782 3.965,0 c 4.874,0 8.131,-2.891 8.131,-8.189 C 8.131,2.891 4.902,0 0,0 m 0.199,18.161 -7.989,0 0,-1.754 1.841,0 0,-16.434 c 0,-1.219 0.511,-1.728 1.728,-1.728 l 4.42,0 c 6.006,0 10.001,3.626 10.001,9.973 0,6.289 -3.995,9.943 -10.001,9.943"
                 inkscape:connector-curvature="0"
                 style="fill:#ffffff" />
            </g>
            <g
               id="g3437"
               transform="translate(155.64,671.09)"
               style="fill:#ffffff">
              <path
                 id="path3439"
                 d="m 0,0 c -4.476,0 -8.074,3.741 -8.074,8.558 0,4.702 3.598,8.3 8.074,8.3 4.449,0 8.075,-3.598 8.075,-8.3 C 8.075,3.741 4.449,0 0,0 m 0,18.728 c -5.665,0 -10.142,-4.448 -10.142,-10.17 0,-5.837 4.477,-10.428 10.142,-10.428 5.639,0 10.145,4.591 10.145,10.428 0,5.722 -4.506,10.17 -10.145,10.17"
                 inkscape:connector-curvature="0"
                 style="fill:#ffffff" />
            </g>
            <g
               id="g3441"
               transform="translate(191.08,687.75)"
               style="fill:#ffffff">
              <path
                 id="path3443"
                 d="m 0,0 0,-12.467 c 0,-1.049 0.142,-2.605 0.142,-2.605 l -0.056,0 c 0,0 -0.936,1.614 -1.615,2.605 L -11.7,1.727 l -1.815,0 0,-17.536 c 0,-0.426 -0.225,-0.625 -0.622,-0.625 l -1.217,0 0,-1.754 2.094,0 c 1.219,0 1.73,0.508 1.73,1.727 l 0,12.466 c 0,1.049 -0.17,2.578 -0.17,2.578 l 0.056,0 c 0,0 0.935,-1.615 1.643,-2.578 l 10.172,-14.193 1.812,0 0,17.537 c 0,0.424 0.228,0.625 0.624,0.625 l 1.218,0 0,1.753 -2.096,0 C 0.51,1.727 0,1.218 0,0"
                 inkscape:connector-curvature="0"
                 style="fill:#ffffff" />
            </g>
            <g
               id="g3445"
               transform="translate(209.33,671.94)"
               style="fill:#ffffff">
              <path
                 id="path3447"
                 d="m 0,0 c 0,-0.426 -0.227,-0.625 -0.623,-0.625 l -6.998,0 c -0.398,0 -0.624,0.199 -0.624,0.625 l 0,6.771 7.48,0 0,1.756 -7.48,0 0,7.255 6.8,0 c 0.397,0 0.624,-0.2 0.624,-0.625 l 0,-1.332 1.869,0 0,1.984 c 0,1.218 -0.51,1.727 -1.728,1.727 l -11.389,0 0,-1.754 1.841,0 0,-16.434 c 0,-1.219 0.51,-1.728 1.728,-1.728 l 8.614,0 c 1.217,0 1.728,0.509 1.728,1.728 l 0,1.984 L 0,1.332 0,0 Z"
                 inkscape:connector-curvature="0"
                 style="fill:#ffffff" />
            </g>
            <g
               id="g3449"
               transform="translate(229.36,678.85)"
               style="fill:#ffffff">
              <path
                 id="path3451"
                 d="m 0,0 -1.983,0 0,-1.756 1.219,0 c 0.396,0 0.622,-0.198 0.622,-0.624 l 0,-2.465 c 0,0 -2.351,-2.918 -6.29,-2.918 -4.504,0 -7.876,3.571 -7.876,8.471 0,4.789 3.428,8.387 7.905,8.387 3.57,0 5.779,-2.039 5.779,-2.039 l 1.163,1.473 c 0,0 -2.351,2.435 -6.971,2.435 -5.636,0 -9.944,-4.532 -9.944,-10.256 0,-5.978 4.308,-10.341 9.747,-10.341 4.192,0 6.515,2.692 6.515,2.692 l 0.057,0 c 0,0 -0.028,-0.426 -0.028,-0.85 l 0,-1.501 1.813,0 0,7.563 C 1.728,-0.51 1.219,0 0,0"
                 inkscape:connector-curvature="0"
                 style="fill:#ffffff" />
            </g>
            <g
               id="g3453"
               transform="translate(246.98,694.24)"
               style="fill:#ffffff">
              <path
                 id="path3455"
                 d="m 0,0 -2.152,0 -1.984,-3.372 1.671,0 L 0,0 Z"
                 inkscape:connector-curvature="0"
                 style="fill:#ffffff" />
            </g>
            <g
               id="g3457"
               transform="translate(243.78,671.09)"
               style="fill:#ffffff">
              <path
                 id="path3459"
                 d="m 0,0 c -4.477,0 -8.076,3.741 -8.076,8.558 0,4.702 3.599,8.3 8.076,8.3 4.447,0 8.074,-3.598 8.074,-8.3 C 8.074,3.741 4.447,0 0,0 m 0,18.728 c -5.666,0 -10.143,-4.448 -10.143,-10.17 0,-5.837 4.477,-10.428 10.143,-10.428 5.638,0 10.143,4.591 10.143,10.428 0,5.722 -4.505,10.17 -10.143,10.17"
                 inkscape:connector-curvature="0"
                 style="fill:#ffffff" />
            </g>
            <g
               id="g3461"
               transform="translate(266.01,671.09)"
               style="fill:#ffffff">
              <path
                 id="path3463"
                 d="m 0,0 c -4.533,0 -7.905,3.825 -7.905,8.585 0,4.817 3.401,8.273 7.82,8.273 2.294,0 5.525,-1.021 5.525,-2.889 l 0,-1.105 1.87,0 0,1.642 c 0,3.005 -4.62,4.222 -7.452,4.222 -5.61,0 -9.831,-4.391 -9.831,-10.143 0,-5.809 4.107,-10.455 9.944,-10.455 4.93,0 7.678,3.23 7.678,3.23 L 6.517,2.805 C 6.517,2.805 4.108,0 0,0"
                 inkscape:connector-curvature="0"
                 style="fill:#ffffff" />
            </g>
            <g
               id="g3465"
               transform="translate(275.93,687.72)"
               style="fill:#ffffff">
              <path
                 id="path3467"
                 d="m 0,0 1.87,0 0,-16.407 -1.87,0 0,-1.755 5.695,0 0,1.755 -1.899,0 0,16.407 1.899,0 0,1.753 L 0,1.753 0,0 Z"
                 inkscape:connector-curvature="0"
                 style="fill:#ffffff" />
            </g>
            <g
               id="g3469"
               transform="translate(294.15,671.09)"
               style="fill:#ffffff">
              <path
                 id="path3471"
                 d="m 0,0 c -4.477,0 -8.076,3.741 -8.076,8.558 0,4.702 3.599,8.3 8.076,8.3 4.447,0 8.074,-3.598 8.074,-8.3 C 8.074,3.741 4.447,0 0,0 m 0,18.728 c -5.667,0 -10.145,-4.448 -10.145,-10.17 0,-5.837 4.478,-10.428 10.145,-10.428 5.638,0 10.142,4.591 10.142,10.428 0,5.722 -4.504,10.17 -10.142,10.17"
                 inkscape:connector-curvature="0"
                 style="fill:#ffffff" />
            </g>
            <g
               id="g3473"
               transform="translate(308.9,684.77)"
               style="fill:#ffffff">
              <path
                 id="path3475"
                 d="m 0,0 c 0,1.701 1.501,3.203 4.08,3.203 1.842,0 3.484,-0.878 3.484,-2.068 l 0,-0.935 1.871,0 0,1.416 c 0,2.608 -3.457,3.428 -5.384,3.428 -3.684,0 -6.092,-2.323 -6.092,-5.1 0,-6.177 9.832,-5.184 9.832,-10.114 0,-2.124 -1.757,-3.541 -3.938,-3.541 -3.145,0 -5.157,2.436 -5.157,2.436 l -1.218,-1.445 c 0,0 2.238,-2.833 6.319,-2.833 3.739,0 6.034,2.523 6.034,5.495 C 9.831,-3.485 0,-4.617 0,0"
                 inkscape:connector-curvature="0"
                 style="fill:#ffffff" />
            </g>
            <g
               id="g3477"
               transform="translate(340.97,671.94)"
               style="fill:#ffffff">
              <path
                 id="path3479"
                 d="m 0,0 c 0,-0.426 -0.226,-0.625 -0.624,-0.625 l -6.997,0 c -0.397,0 -0.623,0.199 -0.623,0.625 l 0,6.771 7.479,0 0,1.756 -7.479,0 0,7.255 6.8,0 c 0.396,0 0.623,-0.2 0.623,-0.625 l 0,-1.332 1.87,0 0,1.984 c 0,1.218 -0.51,1.727 -1.729,1.727 l -11.39,0 0,-1.754 1.842,0 0,-16.434 c 0,-1.219 0.509,-1.728 1.729,-1.728 l 8.612,0 c 1.219,0 1.728,0.509 1.728,1.728 l 0,1.984 L 0,1.332 0,0 Z"
                 inkscape:connector-curvature="0"
                 style="fill:#ffffff" />
            </g>
            <g
               id="g3481"
               transform="translate(366.19,689.48)"
               style="fill:#ffffff">
              <path
                 id="path3483"
                 d="m 0,0 -13.487,0 c -1.219,0 -1.615,-0.395 -1.615,-1.614 l 0,-2.096 1.812,0 0,1.332 c 0,0.453 0.227,0.625 0.623,0.625 l 4.931,0 0,-18.163 1.983,0 0,18.163 4.9,0 c 0.425,0 0.624,-0.172 0.624,-0.625 l 0,-1.332 1.843,0 0,2.096 C 1.614,-0.395 1.216,0 0,0"
                 inkscape:connector-curvature="0"
                 style="fill:#ffffff" />
            </g>
            <g
               id="g3485"
               transform="translate(381.48,671.94)"
               style="fill:#ffffff">
              <path
                 id="path3487"
                 d="m 0,0 c 0,-0.426 -0.226,-0.625 -0.622,-0.625 l -7,0 c -0.397,0 -0.622,0.199 -0.622,0.625 l 0,6.771 7.48,0 0,1.756 -7.48,0 0,7.255 6.799,0 c 0.396,0 0.624,-0.2 0.624,-0.625 l 0,-1.332 1.87,0 0,1.984 c 0,1.218 -0.511,1.727 -1.729,1.727 l -11.388,0 0,-1.754 1.84,0 0,-16.434 c 0,-1.219 0.51,-1.728 1.728,-1.728 l 8.613,0 c 1.22,0 1.728,0.509 1.728,1.728 l 0,1.984 L 0,1.332 0,0 Z"
                 inkscape:connector-curvature="0"
                 style="fill:#ffffff" />
            </g>
            <g
               id="g3489"
               transform="translate(395.08,671.09)"
               style="fill:#ffffff">
              <path
                 id="path3491"
                 d="m 0,0 c -4.533,0 -7.906,3.825 -7.906,8.585 0,4.817 3.4,8.273 7.821,8.273 2.293,0 5.522,-1.021 5.522,-2.889 l 0,-1.105 1.872,0 0,1.642 c 0,3.005 -4.621,4.222 -7.453,4.222 -5.608,0 -9.829,-4.391 -9.829,-10.143 0,-5.809 4.107,-10.455 9.944,-10.455 4.928,0 7.677,3.23 7.677,3.23 L 6.515,2.805 C 6.515,2.805 4.106,0 0,0"
                 inkscape:connector-curvature="0"
                 style="fill:#ffffff" />
            </g>
            <g
               id="g3493"
               transform="translate(420.24,687.75)"
               style="fill:#ffffff">
              <path
                 id="path3495"
                 d="m 0,0 0,-12.467 c 0,-1.049 0.143,-2.605 0.143,-2.605 l -0.059,0 c 0,0 -0.936,1.614 -1.614,2.605 l -10.172,14.194 -1.815,0 0,-17.536 c 0,-0.426 -0.226,-0.625 -0.623,-0.625 l -1.216,0 0,-1.754 2.095,0 c 1.22,0 1.728,0.508 1.728,1.727 l 0,12.466 c 0,1.049 -0.169,2.578 -0.169,2.578 l 0.056,0 c 0,0 0.936,-1.615 1.645,-2.578 l 10.17,-14.193 1.812,0 0,17.537 c 0,0.424 0.227,0.625 0.626,0.625 l 1.219,0 0,1.753 -2.098,0 C 0.509,1.727 0,1.218 0,0"
                 inkscape:connector-curvature="0"
                 style="fill:#ffffff" />
            </g>
            <g
               id="g3497"
               transform="translate(436.44,671.09)"
               style="fill:#ffffff">
              <path
                 id="path3499"
                 d="m 0,0 c -4.478,0 -8.075,3.741 -8.075,8.558 0,4.702 3.597,8.3 8.075,8.3 4.447,0 8.074,-3.598 8.074,-8.3 C 8.074,3.741 4.447,0 0,0 m 0,18.728 c -5.668,0 -10.143,-4.448 -10.143,-10.17 0,-5.837 4.475,-10.428 10.143,-10.428 5.639,0 10.144,4.591 10.144,10.428 0,5.722 -4.505,10.17 -10.144,10.17"
                 inkscape:connector-curvature="0"
                 style="fill:#ffffff" />
            </g>
            <g
               id="g3501"
               transform="translate(460.49,671.94)"
               style="fill:#ffffff">
              <path
                 id="path3503"
                 d="m 0,0 c 0,-0.426 -0.226,-0.625 -0.623,-0.625 l -6.602,0 c -0.395,0 -0.623,0.199 -0.623,0.625 l 0,15.809 c 0,1.218 -0.509,1.727 -1.729,1.727 l -2.096,0 0,-1.754 1.219,0 c 0.395,0 0.623,-0.2 0.623,-0.625 l 0,-15.809 c 0,-1.219 0.511,-1.728 1.727,-1.728 l 8.246,0 c 1.219,0 1.728,0.509 1.728,1.728 l 0,1.984 L 0,1.332 0,0 Z"
                 inkscape:connector-curvature="0"
                 style="fill:#ffffff" />
            </g>
            <g
               id="g3505"
               transform="translate(473.3,671.09)"
               style="fill:#ffffff">
              <path
                 id="path3507"
                 d="m 0,0 c -4.478,0 -8.075,3.741 -8.075,8.558 0,4.702 3.597,8.3 8.075,8.3 4.448,0 8.073,-3.598 8.073,-8.3 C 8.073,3.741 4.448,0 0,0 m 0,18.728 c -5.67,0 -10.145,-4.448 -10.145,-10.17 0,-5.837 4.475,-10.428 10.145,-10.428 5.638,0 10.143,4.591 10.143,10.428 0,5.722 -4.505,10.17 -10.143,10.17"
                 inkscape:connector-curvature="0"
                 style="fill:#ffffff" />
            </g>
            <g
               id="g3509"
               transform="translate(501.97,678.85)"
               style="fill:#ffffff">
              <path
                 id="path3511"
                 d="m 0,0 -1.983,0 0,-1.756 1.216,0 c 0.399,0 0.626,-0.198 0.626,-0.624 l 0,-2.465 c 0,0 -2.352,-2.918 -6.291,-2.918 -4.503,0 -7.876,3.571 -7.876,8.471 0,4.789 3.43,8.387 7.905,8.387 3.571,0 5.782,-2.039 5.782,-2.039 l 1.159,1.473 c 0,0 -2.351,2.435 -6.97,2.435 -5.638,0 -9.944,-4.532 -9.944,-10.256 0,-5.978 4.306,-10.341 9.744,-10.341 4.195,0 6.519,2.692 6.519,2.692 l 0.057,0 c 0,0 -0.029,-0.426 -0.029,-0.85 l 0,-1.501 1.815,0 0,7.563 C 1.73,-0.51 1.219,0 0,0"
                 inkscape:connector-curvature="0"
                 style="fill:#ffffff" />
            </g>
            <g
               id="g3513"
               transform="translate(506.47,687.72)"
               style="fill:#ffffff">
              <path
                 id="path3515"
                 d="m 0,0 1.87,0 0,-16.407 -1.87,0 0,-1.755 5.692,0 0,1.755 -1.897,0 0,16.407 1.897,0 0,1.753 L 0,1.753 0,0 Z"
                 inkscape:connector-curvature="0"
                 style="fill:#ffffff" />
            </g>
            <g
               id="g3517"
               transform="translate(519.36,677.63)"
               style="fill:#ffffff">
              <path
                 id="path3519"
                 d="M 0,0 2.606,7.111 C 2.945,8.046 3.37,9.688 3.37,9.688 l 0.057,0 c 0,0 0.425,-1.642 0.765,-2.577 L 6.828,0 0,0 Z m 10.992,-5.694 -6.516,17.535 -2.125,0 -6.517,-17.535 c -0.197,-0.539 -0.51,-0.625 -1.019,-0.625 l -0.369,0 0,-1.755 0.936,0 c 1.417,0 1.813,0.282 2.322,1.643 l 1.756,4.702 7.907,0 1.729,-4.702 c 0.508,-1.361 0.933,-1.643 2.351,-1.643 l 0.906,0 0,1.755 -0.34,0 c -0.54,0 -0.82,0.086 -1.021,0.625"
                 inkscape:connector-curvature="0"
                 style="fill:#ffffff" />
            </g>
          </g>
          <g
             id="g3521"
             style="fill:#ffffff">
            <g
               id="g3523"
               style="fill:#ffffff">
              <g
                 id="g3529"
                 style="fill:#ffffff">
                <g
                   id="g3531"
                   style="fill:#ffffff">
                  <path
                     id="path3543"
                     d="m 148.63,788.98 -23.507,0 23.507,-23.504 0,6.311 13.987,0 0.245,0 0,-76.666 18.273,0 0.292,1.251 0,75.415 14.644,0 0,17.19 -33.454,0 0,0.003 -13.987,0 z"
                     inkscape:connector-curvature="0"
                     style="fill:#ffffff" />
                </g>
              </g>
            </g>
          </g>
          <path
             id="path3587"
             d="m 205.97,724.68 c 0,0 5.18,27.801 6.092,38.213 0.027,0.422 0.071,0.832 0.095,1.255 0.035,-0.337 0.084,-0.684 0.121,-1.021 1.166,-9.288 6.824,-38.447 6.824,-38.447 l -13.132,0 z m 16.557,64.3 -19.528,0 -21.573,-92.604 0,-1.251 18.273,0 3.3,15.744 18.77,0 3.508,-15.744 19.213,0 0,1.893 -21.963,91.962 z"
             inkscape:connector-curvature="0"
             style="fill:#ffffff" />
        </g>
      </g>
    </g>
  </g>
</svg>
